<svg width="517" height="517" viewBox="0 0 517 517" fill="none" xmlns="http://www.w3.org/2000/svg">
<g clip-path="url(#clip0_566_2)">
<rect width="517" height="517" fill="#B7FF00"/>
<rect x="104" y="105" width="103.4" height="103.4" fill="black"/>
<rect x="103.4" y="311.2" width="103.4" height="103.4" fill="black"/>
<rect x="1" y="207" width="103.4" height="103.4" fill="black"/>
<rect x="207" y="414" width="103.4" height="103.4" fill="black"/>
<rect x="310" y="414" width="103.4" height="103.4" fill="black"/>
<rect x="104" y="414" width="103.4" height="103.4" fill="black"/>
<rect x="206.8" y="207.8" width="103.4" height="103.4" fill="black"/>
<rect x="206.8" y="1" width="103.4" height="103.4" fill="black"/>
<rect width="103.4" height="103.4" fill="black"/>
<rect x="414" y="309" width="103.4" height="103.4" fill="black"/>
<rect x="310" y="105" width="103.4" height="103.4" fill="black"/>
<rect x="414" y="412" width="103.4" height="103.4" fill="black"/>
<rect x="414" width="103.4" height="103.4" fill="black"/>
<rect x="414" y="206" width="103.4" height="103.4" fill="black"/>
<rect x="414" y="103" width="103.4" height="103.4" fill="black"/>
</g>
<defs>
<clipPath id="clip0_566_2">
<rect width="517" height="517" fill="white"/>
</clipPath>
</defs>
</svg>
