<svg width="517" height="517" viewBox="0 0 517 517" fill="none" xmlns="http://www.w3.org/2000/svg">
<rect width="517" height="517" rx="32" fill="black"/>
<rect x="35" y="427" width="28" height="28" fill="#28BFCA"/>
<rect x="63" y="427" width="28" height="28" fill="#28BFCA"/>
<rect x="91" y="427" width="28" height="28" fill="#28BFCA"/>
<rect x="119" y="427" width="28" height="28" fill="#28BFCA"/>
<rect x="147" y="427" width="28" height="28" fill="#28BFCA"/>
<rect x="175" y="427" width="28" height="28" fill="#28BFCA"/>
<rect x="203" y="427" width="28" height="28" fill="#28BFCA"/>
<rect x="231" y="427" width="28" height="28" fill="#28BFCA"/>
<rect x="259" y="427" width="28" height="28" fill="#28BFCA"/>
<rect x="287" y="427" width="28" height="28" fill="#28BFCA"/>
<rect x="315" y="427" width="28" height="28" fill="#28BFCA"/>
<rect x="343" y="427" width="28" height="28" fill="#28BFCA"/>
<rect x="371" y="427" width="28" height="28" fill="#28BFCA"/>
<rect x="399" y="427" width="28" height="28" fill="#28BFCA"/>
<rect x="427" y="427" width="28" height="28" fill="#28BFCA"/>
<rect x="455" y="427" width="28" height="28" fill="#28BFCA"/>
<rect x="35" y="399" width="28" height="28" fill="#28BFCA"/>
<rect x="35" y="371" width="28" height="28" fill="#28BFCA"/>
<rect x="35" y="343" width="28" height="28" fill="#28BFCA"/>
<rect x="35" y="315" width="28" height="28" fill="#28BFCA"/>
<rect x="35" y="287" width="28" height="28" fill="#28BFCA"/>
<rect x="35" y="231" width="28" height="28" fill="#28BFCA"/>
<rect x="63" y="399" width="28" height="28" fill="#28BFCA"/>
<rect x="63" y="371" width="28" height="28" fill="#28BFCA"/>
<rect x="63" y="315" width="28" height="28" fill="#28BFCA"/>
<rect x="63" y="259" width="28" height="28" fill="#28BFCA"/>
<rect x="63" y="203" width="28" height="28" fill="#28BFCA"/>
<rect x="63" y="147" width="28" height="28" fill="#28BFCA"/>
<rect x="63" y="35" width="28" height="28" fill="#28BFCA"/>
<rect x="91" y="399" width="28" height="28" fill="#28BFCA"/>
<rect x="91" y="371" width="28" height="28" fill="#28BFCA"/>
<rect x="91" y="343" width="28" height="28" fill="#28BFCA"/>
<rect x="91" y="287" width="28" height="28" fill="#28BFCA"/>
<rect x="91" y="259" width="28" height="28" fill="#28BFCA"/>
<rect x="91" y="231" width="28" height="28" fill="#28BFCA"/>
<rect x="91" y="175" width="28" height="28" fill="#28BFCA"/>
<rect x="119" y="371" width="28" height="28" fill="#28BFCA"/>
<rect x="119" y="315" width="28" height="28" fill="#28BFCA"/>
<rect x="119" y="259" width="28" height="28" fill="#28BFCA"/>
<rect x="119" y="203" width="28" height="28" fill="#28BFCA"/>
<rect x="119" y="147" width="28" height="28" fill="#28BFCA"/>
<rect x="119" y="91" width="28" height="28" fill="#28BFCA"/>
<rect x="147" y="399" width="28" height="28" fill="#28BFCA"/>
<rect x="147" y="371" width="28" height="28" fill="#28BFCA"/>
<rect x="147" y="343" width="28" height="28" fill="#28BFCA"/>
<rect x="147" y="315" width="28" height="28" fill="#28BFCA"/>
<rect x="147" y="287" width="28" height="28" fill="#28BFCA"/>
<rect x="147" y="231" width="28" height="28" fill="#28BFCA"/>
<rect x="175" y="399" width="28" height="28" fill="#28BFCA"/>
<rect x="175" y="371" width="28" height="28" fill="#28BFCA"/>
<rect x="175" y="315" width="28" height="28" fill="#28BFCA"/>
<rect x="175" y="259" width="28" height="28" fill="#28BFCA"/>
<rect x="175" y="203" width="28" height="28" fill="#28BFCA"/>
<rect x="175" y="147" width="28" height="28" fill="#28BFCA"/>
<rect x="175" y="35" width="28" height="28" fill="#28BFCA"/>
<rect x="203" y="399" width="28" height="28" fill="#28BFCA"/>
<rect x="203" y="371" width="28" height="28" fill="#28BFCA"/>
<rect x="203" y="343" width="28" height="28" fill="#28BFCA"/>
<rect x="203" y="287" width="28" height="28" fill="#28BFCA"/>
<rect x="203" y="259" width="28" height="28" fill="#28BFCA"/>
<rect x="203" y="231" width="28" height="28" fill="#28BFCA"/>
<rect x="203" y="175" width="28" height="28" fill="#28BFCA"/>
<rect x="231" y="371" width="28" height="28" fill="#28BFCA"/>
<rect x="231" y="315" width="28" height="28" fill="#28BFCA"/>
<rect x="231" y="259" width="28" height="28" fill="#28BFCA"/>
<rect x="231" y="203" width="28" height="28" fill="#28BFCA"/>
<rect x="231" y="147" width="28" height="28" fill="#28BFCA"/>
<rect x="231" y="91" width="28" height="28" fill="#28BFCA"/>
<rect x="259" y="399" width="28" height="28" fill="#28BFCA"/>
<rect x="259" y="371" width="28" height="28" fill="#28BFCA"/>
<rect x="259" y="343" width="28" height="28" fill="#28BFCA"/>
<rect x="259" y="315" width="28" height="28" fill="#28BFCA"/>
<rect x="259" y="287" width="28" height="28" fill="#28BFCA"/>
<rect x="259" y="231" width="28" height="28" fill="#28BFCA"/>
<rect x="287" y="399" width="28" height="28" fill="#28BFCA"/>
<rect x="287" y="371" width="28" height="28" fill="#28BFCA"/>
<rect x="287" y="315" width="28" height="28" fill="#28BFCA"/>
<rect x="287" y="259" width="28" height="28" fill="#28BFCA"/>
<rect x="287" y="203" width="28" height="28" fill="#28BFCA"/>
<rect x="287" y="147" width="28" height="28" fill="#28BFCA"/>
<rect x="287" y="35" width="28" height="28" fill="#28BFCA"/>
<rect x="315" y="399" width="28" height="28" fill="#28BFCA"/>
<rect x="315" y="371" width="28" height="28" fill="#28BFCA"/>
<rect x="315" y="343" width="28" height="28" fill="#28BFCA"/>
<rect x="315" y="287" width="28" height="28" fill="#28BFCA"/>
<rect x="315" y="259" width="28" height="28" fill="#28BFCA"/>
<rect x="315" y="231" width="28" height="28" fill="#28BFCA"/>
<rect x="315" y="175" width="28" height="28" fill="#28BFCA"/>
<rect x="343" y="371" width="28" height="28" fill="#28BFCA"/>
<rect x="343" y="315" width="28" height="28" fill="#28BFCA"/>
<rect x="343" y="259" width="28" height="28" fill="#28BFCA"/>
<rect x="343" y="203" width="28" height="28" fill="#28BFCA"/>
<rect x="343" y="147" width="28" height="28" fill="#28BFCA"/>
<rect x="343" y="91" width="28" height="28" fill="#28BFCA"/>
<rect x="371" y="399" width="28" height="28" fill="#28BFCA"/>
<rect x="371" y="371" width="28" height="28" fill="#28BFCA"/>
<rect x="371" y="343" width="28" height="28" fill="#28BFCA"/>
<rect x="371" y="315" width="28" height="28" fill="#28BFCA"/>
<rect x="371" y="287" width="28" height="28" fill="#28BFCA"/>
<rect x="371" y="231" width="28" height="28" fill="#28BFCA"/>
<rect x="399" y="399" width="28" height="28" fill="#28BFCA"/>
<rect x="399" y="371" width="28" height="28" fill="#28BFCA"/>
<rect x="399" y="315" width="28" height="28" fill="#28BFCA"/>
<rect x="399" y="259" width="28" height="28" fill="#28BFCA"/>
<rect x="399" y="203" width="28" height="28" fill="#28BFCA"/>
<rect x="399" y="147" width="28" height="28" fill="#28BFCA"/>
<rect x="399" y="35" width="28" height="28" fill="#28BFCA"/>
<rect x="427" y="399" width="28" height="28" fill="#28BFCA"/>
<rect x="427" y="371" width="28" height="28" fill="#28BFCA"/>
<rect x="427" y="343" width="28" height="28" fill="#28BFCA"/>
<rect x="427" y="287" width="28" height="28" fill="#28BFCA"/>
<rect x="427" y="259" width="28" height="28" fill="#28BFCA"/>
<rect x="427" y="231" width="28" height="28" fill="#28BFCA"/>
<rect x="427" y="175" width="28" height="28" fill="#28BFCA"/>
<rect x="455" y="371" width="28" height="28" fill="#28BFCA"/>
<rect x="455" y="315" width="28" height="28" fill="#28BFCA"/>
<rect x="455" y="259" width="28" height="28" fill="#28BFCA"/>
<rect x="455" y="203" width="28" height="28" fill="#28BFCA"/>
<rect x="455" y="147" width="28" height="28" fill="#28BFCA"/>
<rect x="455" y="91" width="28" height="28" fill="#28BFCA"/>
<rect x="35" y="455" width="28" height="28" fill="#28BFCA"/>
<rect x="63" y="455" width="28" height="28" fill="#28BFCA"/>
<rect x="91" y="455" width="28" height="28" fill="#28BFCA"/>
<rect x="119" y="455" width="28" height="28" fill="#28BFCA"/>
<rect x="147" y="455" width="28" height="28" fill="#28BFCA"/>
<rect x="175" y="455" width="28" height="28" fill="#28BFCA"/>
<rect x="203" y="455" width="28" height="28" fill="#28BFCA"/>
<rect x="231" y="455" width="28" height="28" fill="#28BFCA"/>
<rect x="259" y="455" width="28" height="28" fill="#28BFCA"/>
<rect x="287" y="455" width="28" height="28" fill="#28BFCA"/>
<rect x="315" y="455" width="28" height="28" fill="#28BFCA"/>
<rect x="343" y="455" width="28" height="28" fill="#28BFCA"/>
<rect x="371" y="455" width="28" height="28" fill="#28BFCA"/>
<rect x="399" y="455" width="28" height="28" fill="#28BFCA"/>
<rect x="427" y="455" width="28" height="28" fill="#28BFCA"/>
<rect x="455" y="455" width="28" height="28" fill="#28BFCA"/>
</svg>
