<svg width="662" height="376" viewBox="0 0 662 376" fill="none" xmlns="http://www.w3.org/2000/svg">
<path d="M642 64V356H64V64H642Z" fill="black" stroke="black" stroke-width="40"/>
<path d="M618 332H0V179.926L179.926 0H618V332Z" fill="#B7FF00"/>
<path d="M198.978 211.011V166.022L153.989 166.022V211.011L198.978 211.011ZM109 256L109 166.022L153.989 121.033H198.978V76.0439L243.967 76.0439L243.967 256H109ZM266.544 256V211.011H311.533V256H266.544ZM266.544 166.022V76.0439H311.533V166.022H266.544ZM378.989 256L334 211.011V76.0439L378.989 76.0439V121.033L423.978 121.033V166.022H378.989L378.989 211.011H423.978V256H378.989ZM446.5 256L446.5 121.033L536.478 121.033V166.022H491.489L491.489 256H446.5Z" fill="black"/>
</svg>
